<?xml version="1.0" encoding="UTF-8"?>
<svg version="1.1" viewBox="0 0 1600 288" xmlns="http://www.w3.org/2000/svg">
<path transform="translate(952,39)" d="m0 0c1.06 0.00516 2.13 0.0103 3.22 0.0156 15.3 0.512 31.2 5.07 43.8 14 1.07 0.761 2.14 1.52 3.25 2.3 4.57 3.32 8.75 6.69 12.8 10.7l2-20c9.6-3.13 18.3-4.74 28.4-4.94 1.86-0.0434 3.72-0.108 5.58-0.187 24.2-1.02 24.2-1.02 34 6.13 0.726 0.387 1.45 0.773 2.2 1.17 6.36 3.73 8.79 10.1 11.8 16.5 1.96 4.23 4.19 8.26 6.53 12.3 0.351 0.605 0.701 1.21 1.06 1.83 0.809 1.39 1.62 2.78 2.44 4.17 2.65-3.18 4.83-6.27 6.75-9.94 0.514-0.954 1.03-1.91 1.56-2.89 1.19-2.23 2.37-4.47 3.54-6.72 5.24-9.84 11.1-17.5 21.8-21.6 7.01-1.69 14.2-1.44 21.4-1.39 2.82 0.0139 5.64-0.0203 8.46-0.0583 9.21-0.0352 16.8 0.0995 25 4.76 3.41 1.22 5.21 0.285 8.47-1.12 1.31-0.703 2.6-1.43 3.88-2.19 4.23-2.15 7.59-1.97 12.1-0.812 0.664 0.131 1.33 0.263 2.01 0.398 14.3 3.64 27.2 17.1 36.2 28.3 1.6 1.99 3.07 3.44 5.09 4.97l2.75 2.31v2c0.556 0.229 1.11 0.458 1.68 0.694 2.97 1.67 4.99 3.78 7.38 6.21 0.473 0.478 0.946 0.957 1.43 1.45 1.51 1.52 3.01 3.05 4.5 4.59 1.5 1.53 3 3.05 4.5 4.57 1.37 1.38 2.73 2.77 4.09 4.16 2.05 1.98 4.08 3.69 6.41 5.33-7.96e-4 -0.547-0.00159-1.09-0.00241-1.66-0.00246-5.76 0.0372-11.5 0.1-17.3 0.018-2.14 0.0258-4.28 0.0225-6.43-0.023-24.6-0.023-24.6 6.88-33.6 11.7-9.11 29-7.08 43-6 8.15 1.15 16.2 2.88 22 9.13 5.74 8.18 5.95 15.6 5.71 25.3-0.0131 1.55-0.023 3.11-0.03 4.66-0.0265 4.05-0.095 8.1-0.173 12.2-0.0721 4.15-0.104 8.3-0.139 12.4-0.0747 8.12-0.194 16.2-0.342 24.3 0.156-1.3 0.311-2.61 0.472-3.95 1.31-10.2 2.93-19 7.78-28.2 0.452-0.923 0.905-1.85 1.37-2.8 4.58-9.11 10-17.2 17.5-24.2 1.98-1.86 1.98-1.86 3.57-4.25 3.25-3.7 7.08-6.01 11.3-8.58 0.855-0.529 1.71-1.06 2.59-1.6 6.63-4.05 13.2-7.74 20.5-10.5 1.84-0.725 1.84-0.725 3.72-1.46 11.1-3.88 22.4-4.01 34-4.04 1.18-0.00674 1.18-0.00674 2.39-0.0136 27.1-0.0627 49.7 8.3 69.9 26.5 0.681 0.597 1.36 1.19 2.06 1.81 11.5 10.6 22.2 28.7 23.1 44.5-0.191 1.96-0.191 1.96-1.13 5.71-0.215 1.13-0.215 1.13-0.434 2.27-1.38 5.75-3.84 8.34-8.73 11.5-8.61 3.61-17.5 3.48-26.7 3.19-2.12-0.0607-4.24-0.0839-6.36-0.106-9.75-0.208-16.7-1.95-24.4-7.96-0.608-0.639-1.22-1.28-1.84-1.94-0.629-0.639-1.26-1.28-1.91-1.94-1.74-2.25-2.57-4.42-3.59-7.06-1.85-1.26-1.85-1.26-4-2l-1.88-1.06c-7.48-3.3-19.1-3.2-27-1.22-6.85 2.86-11.2 7.36-14.3 14.1-4.25 11.1-4.86 24.8-0.164 35.8 3.87 7.16 8.25 11.1 16 13.8 2.82 0.816 5.4 1.43 8.34 1.68 0.749 0.0632 1.5 0.126 2.27 0.191 7.79 0.371 13.6-1.52 19.5-6.57 2.24-2.57 2.24-2.57 3.94-5.44 4.63-6.56 10.5-11.7 18.2-14.2 2.78-0.428 5.51-0.491 8.32-0.504 1.17-0.015 1.17-0.015 2.37-0.0303 1.65-0.0151 3.29-0.0222 4.94-0.0217 2.48-0.00652 4.95-0.061 7.42-0.118 9.91-0.107 18.7 0.563 27 6.67 2.29 3.6 3.31 6.8 4 11 0.129 0.697 0.258 1.39 0.391 2.11 1.22 14.2-7.56 30.6-15.4 41.9-1.62 1.71-3.28 3.39-5 5-1.27 1.56-2.54 3.12-3.81 4.69-6.03 6.72-13.3 11-21.2 15.3l-3.12 1.75c-19.6 9.6-42.5 11.6-63.9 9.25-1.17-0.107-2.35-0.214-3.55-0.324-19.2-2.41-39.2-12.8-53.4-25.7-0.791-0.7-1.58-1.4-2.4-2.12-14.1-13.2-22.9-30.3-27.6-48.9-0.768 7.25-1.12 14.4-1.11 21.7-0.0135 2-0.0285 4-0.0449 6-0.0228 3.1-0.0371 6.19-0.0247 9.29 0.0764 26 0.0764 26-8.53 34.8-1.81 1.32-3.46 2.15-5.55 2.95-1.02 0.424-1.02 0.424-2.07 0.857-8.07 2.75-15.1-0.119-22.6-3.43-5.02-2.69-9.14-5.92-13.1-9.96-0.466-0.467-0.932-0.935-1.41-1.42-1.52-1.53-3.04-3.07-4.56-4.61-1.07-1.08-2.14-2.15-3.21-3.23-2.81-2.83-5.62-5.66-8.42-8.49-4.48-4.52-8.97-9.04-13.5-13.6-1.56-1.57-3.11-3.13-4.66-4.7-5.23-5.28-10.6-10.3-16.2-15.2l-1-1c0.02 0.821 0.02 0.821 0.0404 1.66 0.134 5.76 0.224 11.5 0.289 17.3 0.03 2.14 0.0707 4.28 0.123 6.43 0.598 25.2 0.598 25.2-6.45 33.6-8.37 7.43-19.3 6.93-29.9 6.78-2.76-0.0323-5.5-1.38e-4 -8.26 0.0381-9.48 0.0217-17.5-0.0551-24.9-6.82-12.4-14.7-8.13-40.4-8.1-58.2 0.00243-2.71 0.00334-5.42 0.00429-8.14 0.00308-6.37 0.0113-12.7 0.0213-19.1 0.0113-7.26 0.0167-14.5 0.0217-21.8 0.0104-14.9 0.0279-29.8 0.0503-44.7-0.453 0.74-0.907 1.48-1.37 2.24-1.71 2.79-3.42 5.58-5.13 8.37-0.736 1.2-1.47 2.4-2.21 3.6-3.91 6.39-7.84 12.7-12 18.9-1.97 2.91-3.86 5.88-5.75 8.85-2.44 3.82-4.9 7.6-7.5 11.3-1 1.56-2 3.12-3 4.69-0.372 0.522-0.744 1.04-1.13 1.58-8.94 12.7-8.58 24.1-8 39.2 0.24 7.08 0.162 14.2 0.0344 21.2-0.0345 2.39-0.0328 4.77-0.0295 7.15-0.0916 9.15-0.945 17.3-6.88 24.8-12.9 8.37-35.3 7.73-50 5-7.95-2.88-13.4-8.35-17-16-0.468-3.34-0.464-6.31-0.184-9.66 0.148-2.69 0.0481-4.79-0.305-7.42-0.583-4.98-0.588-9.87-0.503-14.9 0.0175-1.89 0.0344-3.78 0.0508-5.67 0.0309-2.94 0.0665-5.87 0.113-8.81 0.0426-2.86 0.0658-5.72 0.0864-8.59 0.0186-0.866 0.0372-1.73 0.0564-2.62 0.0394-9.49-3.02-16.6-8.31-24.3-0.985-1.48-1.97-2.95-2.95-4.43-0.503-0.757-1.01-1.51-1.52-2.29-3-4.6-5.82-9.31-8.65-14-2.66-4.4-5.43-8.7-8.29-13-2.87-4.28-5.66-8.61-8.46-12.9-0.593-0.913-1.19-1.83-1.8-2.77-1.44-2.22-2.89-4.45-4.33-6.67 0.321 1.31 0.321 1.31 0.648 2.64 1.61 8.02 1.7 13.5-2.47 20.6-3.85 4.79-8.53 8.29-14.2 10.7-3.88 0.203-3.88 0.203-7 0 0.534 0.317 1.07 0.634 1.62 0.961 6.7 4.19 12.1 9.18 17.4 15 0.59 0.641 1.18 1.28 1.79 1.94 8.7 11 10.3 28.5 9.21 42.1-0.0722 0.999-0.144 2-0.219 3.03-2.05 17.3-11.6 31.1-24.8 42-23.5 17.1-51.1 20.8-79.5 17.6-3.62-0.611-6.97-1.45-10.5-2.55-0.69-0.21-1.38-0.42-2.09-0.636-12.4-3.89-22.1-9.95-31.9-18.4-0.981-0.815-1.96-1.63-2.97-2.47-10.7-9.66-15.5-23.5-17-37.5-0.473 0.944-0.946 1.89-1.43 2.86-4.48 8.76-9.37 16.5-15.6 24.1-0.543 0.754-1.09 1.51-1.64 2.29-9.21 11.9-26.6 21.8-41 25.8-1.08 0.312-2.15 0.624-3.26 0.945-14 3.38-28 3.36-42.3 3.55-2.25 0.0383-4.51 0.0773-6.76 0.117-47.3 0.802-47.3 0.802-56-6.74-6.55-8.97-6.88-18.2-6.84-28.8-0.0147-1.66-0.0319-3.32-0.0513-4.98-0.0441-4.47-0.0503-8.94-0.0465-13.4 2.41e-4 -3.75-0.0169-7.49-0.0336-11.2-0.0384-8.84-0.0443-17.7-0.0307-26.5 0.0133-9.09-0.0325-18.2-0.107-27.3-0.0615-7.83-0.0841-15.7-0.0763-23.5 0.00412-4.67-0.00661-9.34-0.0558-14-0.0447-4.39-0.0406-8.78-1.45e-4 -13.2 0.00679-1.6-0.00322-3.21-0.032-4.81-0.137-8.2 0.262-14.5 6.12-20.6 1.68-1.6 3.39-3.15 5.15-4.66 0.659-0.596 1.32-1.19 2-1.81 6.05-5.13 15-3.76 22.4-3.57 1.63 0.0256 3.26 0.0494 4.88 0.0715 3.44 0.0514 6.89 0.119 10.3 0.198 4.49 0.0973 8.97 0.137 13.5 0.158 37.8 0.194 37.8 0.194 53.9 5.95 0.653 0.223 1.31 0.446 1.98 0.676 18.5 6.47 34.5 20 45 36.3 0.713 1.09 1.43 2.18 2.16 3.3 3.66 5.7 6.81 11.2 8.84 17.7 0.0864-0.764 0.173-1.53 0.262-2.32 2.36-18 8.09-32.4 22.4-44 14.1-10.2 27.2-15.9 44.3-18.7 0.859-0.188 1.72-0.376 2.6-0.57 5.07-0.909 10.3-0.542 15.4-0.43zm-12 70c3.6 3.46 7.49 3.73 12.2 4.19 0.745 0.0819 1.49 0.164 2.26 0.248 1.83 0.199 3.66 0.383 5.49 0.564-0.669-3.04-0.669-3.04-2.75-4.14-5.34-2.03-11.8-2.5-17.2-0.855zm-174 3v63c13.5 0.721 13.5 0.721 25-4.82 7.46-8.84 9.64-18.2 9.29-29.6-0.776-8.79-3.66-15.8-9.32-22.6-2.23-1.99-2.23-1.99-5-3-0.636-0.275-1.27-0.549-1.93-0.832-6.6-2.57-10.4-2.17-18.1-2.17zm107 28c-0.338 3.71-0.669 7.42-1 11.1-0.0954 1.05-0.191 2.09-0.289 3.17-0.435 4.91-0.848 9.76-0.711 14.7 0.762-0.349 1.52-0.699 2.31-1.06 6.37-2.81 11.7-4.59 18.7-4.94-0.709-0.679-1.42-1.36-2.15-2.06-3.11-3.12-5.79-6.52-8.48-10-0.715-0.917-0.715-0.917-1.45-1.85-2.34-3.01-4.65-6.03-6.93-9.08z" fill="#000100"/>
<path transform="translate(111,39)" d="m0 0c1.12 0.0296 2.25 0.0593 3.41 0.0898 18.3 0.844 35.2 6.66 49.6 17.9 1.06 0.671 1.06 0.671 2.14 1.36 7 4.49 10.8 11.6 14.9 18.6 0.605 1.05 1.21 2.11 1.83 3.19 3.48 6.5 5.41 12.5 6.17 19.8l0.438 3.62c-0.951 7.34-4.78 12.2-10.3 16.9-4.16 3.12-6.93 4.61-12.1 4.5-0.99-0.33-1.98-0.66-3-1v2c0.889 0.248 1.78 0.495 2.7 0.75 9.39 3.55 18.6 14.2 22.7 23.2 0.977 2.66 1.85 5.31 2.65 8.03l1 3c0.0121-1.73 0.0121-1.73 0.0245-3.49 0.0777-10.9 0.165-21.8 0.263-32.7 0.0498-5.6 0.0961-11.2 0.134-16.8 0.037-5.41 0.0835-10.8 0.136-16.2 0.0184-2.06 0.0336-4.12 0.0453-6.18 0.179-30.4 0.179-30.4 8.4-39.6 9.37-5.25 20.3-4.6 30.7-4.57 1.8-0.00525 3.6-0.0115 5.4-0.0188 3.76-0.0104 7.52-0.00592 11.3 0.00877 4.77 0.0171 9.53-0.00625 14.3-0.0415 3.72-0.0222 7.43-0.0205 11.2-0.0122 1.75 8.08e-4 3.51-0.00583 5.26-0.0208 22.5-0.162 42.2 5.88 58.9 21.7 7.68 7.83 13 15.9 17.5 25.9 1.15 2.95 1.15 2.95 2.46 4.14-0.0471-1.44-0.0471-1.44-0.0952-2.91-0.11-3.63-0.178-7.26-0.234-10.9-0.0298-1.56-0.0705-3.12-0.123-4.68-0.338-10.3-0.186-20 6.45-28.5 7.62-4.28 16.6-4.22 25.1-4.57 0.953-0.0409 1.91-0.0818 2.89-0.124 10.6-0.422 21.3-0.464 32-0.431 1.01 0.00288 2.02 0.00576 3.07 0.00873 6.08 0.0202 12.1 0.0565 18.2 0.0999 2.58 0.0152 5.17 0.0209 7.75 0.0222 4.24 0.00374 8.47 0.0565 12.7 0.119 1.2-0.00274 2.39-0.00548 3.62-0.0083 8.24 0.191 14.9 2.15 21.7 6.88 6.27 7.15 6.55 14.5 6.12 23.5-0.134 3.04-0.0271 5.91 0.328 8.93 1 8.56 0.791 14.7-4.25 22.1-3.24 3.56-6.74 5.67-11.2 7.41 0.742 0.804 1.48 1.61 2.25 2.44 5.84 7.1 7.65 14.5 7.75 23.6 0.00935 0.813 0.0187 1.63 0.0283 2.46 0.0911 23.3 0.0911 23.3-7.03 30.5-3.51 2.44-7.06 4.34-11 6 0.545 0.17 1.09 0.34 1.65 0.516 2.46 0.791 4.9 1.64 7.35 2.48 0.777 0.232 1.55 0.464 2.36 0.703 6.1 2.14 8.89 5.55 12.2 11 2.63 6.04 2.25 12 2.01 18.5-0.0148 1.31-0.0296 2.63-0.0449 3.98-0.195 9.93-0.93 19.9-7.52 27.8-5.17 3.48-10.9 6.1-17.2 6.17-0.853 0.0115-1.71 0.023-2.59 0.0348-0.933 0.0074-1.87 0.0148-2.83 0.0224-0.986 0.0114-1.97 0.0228-2.99 0.0345-10.3 0.111-20.7 0.158-31 0.201-4.89 0.0222-9.79 0.064-14.7 0.123-5.92 0.0713-11.8 0.108-17.8 0.12-2.25 0.0104-4.5 0.0327-6.74 0.0676-23.1 0.34-23.1 0.34-32.3-7.77-4.58-4.67-7.15-8.71-7.2-15.4 0.158-4.33 0.572-8.63 0.98-12.9 0.342-4.25 0.359-8.48 0.34-12.7-0.00185-0.865-0.00371-1.73-0.00562-2.62-0.0941-14.8-0.646-29.5-1.12-44.3-0.46 0.872-0.921 1.74-1.4 2.64-0.615 1.15-1.23 2.31-1.86 3.5-0.605 1.14-1.21 2.28-1.83 3.45-9.8 17.5-23.9 30.1-43.1 35.8-3.26 0.907-6.53 1.75-9.81 2.56-1.01 0.267-2.02 0.534-3.05 0.809-7.57 1.71-21.9 3.72-28.9 0.191 0.0157 0.675 0.0314 1.35 0.0476 2.04 0.0631 3.11 0.102 6.22 0.14 9.33 0.0251 1.06 0.0503 2.12 0.0762 3.21 0.0832 9.04-0.946 18.5-7.26 25.4-8.59 6.8-16.9 6.78-27.4 6.3-2.51-0.112-5.02-0.166-7.54-0.212-9.52-0.27-18.8-0.958-27.1-6.09-8.94-11.5-6.04-31.2-6-45-0.352 1.05-0.704 2.1-1.07 3.18-2.9 8.37-5.79 15.3-11.9 21.8-0.587 0.71-1.17 1.42-1.78 2.15-7.16 8.07-16.8 12.8-26.2 17.8-0.986 0.545-1.97 1.09-2.99 1.65-12.7 5.69-26.8 6.82-40.5 6.85-1.84 0.00906-1.84 0.00906-3.72 0.0183-12-0.164-23.3-2.55-34.5-6.71-1.21-0.448-1.21-0.448-2.45-0.906-6.64-2.59-11.6-6.08-16.8-10.9-1.36-0.994-2.74-1.97-4.12-2.94-11-8.32-18.7-20.9-20.7-34.7-0.0722-0.788-0.144-1.58-0.219-2.39-0.0928-0.88-0.186-1.76-0.281-2.67-0.405-7.19 0.882-13.5 5.28-19.3 6.25-4.56 12.4-5.62 20-5v-2c-0.58-0.246-1.16-0.492-1.76-0.746-9.87-5.52-16.9-18.8-20.2-29.3-3.53-12.8-2.99-27.2 0-40 0.233-1.06 0.467-2.11 0.707-3.2 2.28-8.78 6.5-14.9 12.3-21.8 0.75-0.99 1.5-1.98 2.27-3 3.08-3.68 6.87-6.05 10.9-8.56 0.759-0.479 1.52-0.958 2.3-1.45 9.3-5.81 17.7-9.78 28.5-12 0.981-0.206 1.96-0.412 2.97-0.625 7.4-1.4 14.5-1.65 22-1.38zm-11 71c6.36 2.76 12.1 3.63 19 4l1-2c-5.42-4.3-14-5.68-20-2zm167 1 1 21 7.69-0.188c0.79-0.00669 1.58-0.0134 2.39-0.0203 3.96-0.175 5.63-0.575 8.9-3.03 2.73-3.74 2.67-5.97 2.44-10.5-0.298-2.5-0.298-2.5-2.18-4.88-5.99-3.83-13.4-2.5-20.2-2.44z" fill="#000100"/>
<path transform="translate(538 43.7)" d="m0 0c12.3 6.15 21.3 15.3 30.1 25.6 2.32 2.55 4.9 4.58 7.59 6.74 2.48 2.36 4.74 4.66 6.81 7.38 1.81 2.18 3.49 3.81 5.62 5.62 4.65 3.96 8.9 8.28 13.2 12.6 2.9 3.06 2.9 3.06 6.39 5.36-0.0133-0.575-0.0266-1.15-0.0404-1.74-0.134-6.04-0.224-12.1-0.289-18.1-0.03-2.25-0.0708-4.49-0.123-6.74-0.562-24.8-0.562-24.8 6.45-33.4 9.13-8.62 24.6-6.65 36.2-6.41 10.4 0.45 20.9 1.9 28.8 9.23 7.71 9.96 5.91 22.3 5.74 34.3-0.0106 2.51-0.0181 5.02-0.0228 7.53-0.0189 5.95-0.0695 11.9-0.135 17.9-0.0777 7.23-0.103 14.5-0.131 21.7-0.0509 11.5-0.16 23.1-0.306 34.6-0.0905 7.38-0.143 14.8-0.16 22.1-0.0148 4.59-0.0534 9.18-0.0974 13.8-0.0153 2.12-0.0208 4.24-0.0154 6.37 0.0517 25.8 0.0517 25.8-8.66 34.8-1.77 1.34-3.36 2.12-5.44 2.89-0.682 0.278-1.36 0.556-2.07 0.843-8.05 2.7-15.2-0.177-22.6-3.48-7.24-3.89-12.5-9.28-18.2-15.1-0.981-0.987-1.96-1.97-2.94-2.96-2.58-2.59-5.15-5.18-7.71-7.78-4.1-4.14-8.21-8.28-12.3-12.4-1.42-1.43-2.84-2.87-4.26-4.31-4.49-4.52-9.03-8.88-13.9-13-2.37-2.07-4.56-4.27-6.75-6.53-0.169 4.94-0.33 9.89-0.482 14.8-0.053 1.68-0.108 3.36-0.166 5.03-0.471 11-0.471 11 0.258 21.9 0.524 4.19-0.0558 7.09-1.8 11-0.427 1.05-0.853 2.09-1.29 3.17-4.38 5.36-9.86 8.35-16.8 9.43-5.18 0.506-10.3 0.549-15.5 0.488-2.73-0.0246-5.46 0.0203-8.19 0.071-9.15 0.054-16.6-0.553-24.7-5.23-9.24-10.3-8.15-23.6-8.17-36.6-0.0209-2.2-0.044-4.4-0.069-6.6-0.0492-4.71-0.0833-9.41-0.106-14.1-0.0385-7.45-0.126-14.9-0.219-22.3-0.139-11.6-0.224-23.1-0.269-34.7-0.026-6.61-0.0654-13.2-0.138-19.8-0.0723-6.55-0.108-13.1-0.12-19.6-0.0103-2.46-0.0326-4.91-0.0676-7.37-0.31-22.8-0.31-22.8 5.87-30.7 3.04-2.9 6.14-4.98 9.9-6.82l3-1.88c6.29-2.36 12.4-0.00624 18.3 2.53z" fill="#FCFDFE"/>
<path transform="translate(728 54.8)" d="m0 0c0.984 0.011 1.97 0.0219 2.98 0.0332 8.82 0.127 17.6 0.47 26.4 0.869 5.62 0.25 11.1 0.324 16.8 0.0977 18.8-0.108 38.8 5.23 52.6 18.4 0.602 0.61 1.2 1.22 1.82 1.85l2.75 2.69c0.742 0.763 1.48 1.53 2.25 2.31l2.38 2.12c17.3 19 22.6 43.3 21.9 68.2-0.777 16.7-5.49 32.9-15.3 46.7h-2l-0.266 1.72c-2.32 7.22-10.5 13.5-16.9 17-2.81 1.25-2.81 1.25-4.81 1.25v2c-0.969 0.454-1.94 0.908-2.94 1.38-3.13 1.28-3.13 1.28-4.06 3.62-2.79 0.942-5.54 1.78-8.38 2.56-1.55 0.439-3.1 0.877-4.65 1.32-0.69 0.192-1.38 0.383-2.09 0.58-1.64 0.471-3.27 1-4.89 1.54-12.5 1.55-25.3 1.34-38 1.56-3.74 0.0674-7.48 0.145-11.2 0.224-2.41 0.0449-4.81 0.0892-7.22 0.133-1.1 0.0239-2.2 0.0478-3.34 0.0724-18.2 0.291-18.2 0.291-23.4-2.92-3.17-3.48-3.01-5.73-3.06-10.4-0.00776-0.654-0.0155-1.31-0.0235-1.98-0.0248-2.2-0.0425-4.4-0.0601-6.61-0.0161-1.58-0.0326-3.15-0.0495-4.73-0.0535-5.18-0.0963-10.4-0.139-15.5-0.0152-1.78-0.0305-3.57-0.0458-5.35-0.0714-8.38-0.138-16.8-0.199-25.1-0.0702-9.67-0.157-19.3-0.258-29-0.077-7.48-0.139-15-0.188-22.4-0.0302-4.47-0.067-8.93-0.12-13.4-0.0497-4.2-0.0802-8.41-0.096-12.6-0.0091-1.54-0.0251-3.08-0.0486-4.62-0.214-14.5-0.214-14.5 4.41-20.3 5.59-3.73 13-3.4 19.4-3.25zm37.6 57.2v63c13.5 0.721 13.5 0.721 25-4.82 7.46-8.84 9.64-18.2 9.29-29.6-0.776-8.79-3.66-15.8-9.32-22.6-2.23-1.99-2.23-1.99-5-3-0.636-0.275-1.27-0.549-1.93-0.832-6.6-2.57-10.4-2.17-18.1-2.17z" fill="#FCFDFE"/>
<path transform="translate(1358 59.9)" d="m0 0c2.11 3.57 2.35 6.41 2.35 10.5 0.00282 1.12 0.00564 2.24 0.00854 3.4-0.00304 1.85-0.00304 1.85-0.00613 3.73 0.00263 1.94 0.00263 1.94 0.00531 3.93 0.00457 3.57 0.00278 7.13-3.79e-4 10.7-0.00254 3.75-1.81e-4 7.51 0.00139 11.3 0.00182 6.33-5.82e-4 12.7-0.00534 19-0.00539 7.25-0.00372 14.5 0.00183 21.7 0.00459 6.26 0.00515 12.5 0.00256 18.8-0.00154 3.72-0.00183 7.44 0.00154 11.2 0.00704 9.31-0.029 18.6-0.136 27.9-0.0132 1.23-0.0264 2.47-0.04 3.74-0.0486 3.49-0.127 6.98-0.218 10.5-0.0136 1.03-0.0272 2.05-0.0412 3.11-0.147 4.39-0.289 7-2.6 10.8-3.2 2.84-5.48 2.51-9.59 2.27-9.87-1.6-18-11.3-24-18.7-2.34-2.63-5.05-4.8-7.77-7.02-1.73-1.68-1.73-1.68-2.72-3.76-1.29-2.44-2.56-2.76-5.02-3.92-1.64-1.7-1.64-1.7-3.25-3.69-3.05-3.62-6.32-6.68-9.92-9.74-2.4-2.07-4.59-4.33-6.83-6.57-2.62-2.32-5.25-4.62-7.89-6.91-2.11-2.09-2.11-2.09-3.11-5.09-1.32-0.702-2.65-1.37-4-2-1.55-1.4-1.55-1.4-3.02-3-0.547-0.576-1.09-1.15-1.66-1.74-1.13-1.21-2.25-2.42-3.37-3.64-0.549-0.574-1.1-1.15-1.66-1.74-0.488-0.527-0.975-1.05-1.48-1.6-2.47-1.74-4.85-1.84-7.81-2.28 0.00888 0.956 0.0178 1.91 0.0269 2.9 0.0811 9 0.141 18 0.18 27 0.0209 4.63 0.0492 9.26 0.0945 13.9 0.0434 4.47 0.0674 8.93 0.0778 13.4 0.00739 1.7 0.0218 3.41 0.0434 5.11 0.029 2.39 0.033 4.77 0.0312 7.16 0.0144 0.706 0.0288 1.41 0.0436 2.14-0.028 3.33-0.296 5.11-2.3 7.82-3.26 2.31-6.44 2.11-10.3 2.06-0.782 0.00146-1.56 0.00291-2.37 0.00441-1.65-0.00166-3.3-0.0132-4.95-0.034-2.52-0.0289-5.03-0.0206-7.55-0.00757-1.61-0.00624-3.21-0.0146-4.82-0.0254-0.749 0.00294-1.5 0.00587-2.27 0.0089-4.48-0.0802-7.4-0.669-11-3.44-3.9-7.8-2.17-19.7-2.21-28.2-0.00956-1.5-0.0195-3-0.0296-4.49-0.0311-4.87-0.0516-9.75-0.0702-14.6-0.0033-0.832-0.00659-1.66-0.00999-2.52-0.0307-7.86-0.0574-15.7-0.0744-23.6-0.022-10-0.0641-20-0.133-30-0.0472-7.06-0.0715-14.1-0.0788-21.2-0.00495-4.21-0.02-8.42-0.0597-12.6-0.0369-3.96-0.0453-7.91-0.032-11.9-5.39e-5 -1.45-0.0103-2.9-0.0318-4.35-0.172-12.3-0.172-12.3 3.5-16.9 2.38-2.43 4.23-3.07 7.6-3.38 13.2 1.17 23.5 15.5 31.8 24.6 6.4 7.13 6.4 7.13 13.8 13.1v2l1.69 0.688c2.93 1.66 4.98 3.92 7.31 6.31 3.1 3.13 6.21 6.25 9.31 9.38 0.817 0.825 1.63 1.65 2.47 2.5 4.38 4.4 8.82 8.64 13.5 12.7 2.34 2.04 4.48 4.26 6.67 6.46 2.75 2.35 4.56 3.85 8 5-0.00444-0.889-0.00888-1.78-0.0135-2.69-0.0401-8.39-0.0705-16.8-0.0902-25.2-0.0104-4.31-0.0246-8.62-0.0473-12.9-0.0218-4.16-0.0337-8.33-0.0389-12.5-0.00369-1.59-0.0109-3.17-0.0217-4.76-0.0146-2.23-0.0165-4.45-0.0156-6.68-0.00444-1.27-0.00888-2.53-0.0135-3.84 0.322-4.63 1.18-8.14 4.11-11.8 4.89-2.63 9.72-2.48 15.2-2.62 1.07-0.0548 2.14-0.11 3.24-0.166 18.3-0.629 18.3-0.629 23.5 5.03z" fill="#FCFDFE"/>
<path transform="translate(223 55.6)" d="m0 0c0.723-0.00847 1.45-0.0169 2.19-0.0257 2.39-0.0234 4.77-0.0244 7.16-0.0232 1.68-0.00711 3.35-0.0148 5.03-0.0231 3.52-0.0134 7.04-0.015 10.6-0.00916 4.46 0.00584 8.92-0.0245 13.4-0.0651 3.47-0.0262 6.94-0.0287 10.4-0.0251 1.64-0.00167 3.28-0.0111 4.92-0.0291 19.9-0.195 36.4 4.33 51.4 18 2.11 2.08 3.98 4.19 5.66 6.64v2h2c10.7 18.1 14.1 37.5 10.3 58.4-2.01 7.78-5.6 14.1-10.3 20.6-0.69 0.946-1.38 1.89-2.09 2.87-5.41 7.11-5.41 7.11-9.91 8.13l-1 3c-8.32 6.81-18.8 8.82-29 11-0.76 0.173-1.52 0.347-2.3 0.525-2.99 0.527-5.84 0.653-8.88 0.721-1.17 0.0329-2.35 0.0657-3.56 0.0996-2.46 0.0611-4.92 0.118-7.38 0.172-1.18 0.0342-2.35 0.0683-3.56 0.104-1.07 0.0251-2.14 0.0501-3.24 0.0759-4.01 0.395-7.48 1.5-11.1 3.3-0.0198 1-0.0396 2.01-0.0601 3.04-0.0763 3.74-0.165 7.47-0.257 11.2-0.0382 1.61-0.0731 3.23-0.104 4.84-0.0459 2.33-0.104 4.65-0.164 6.98-0.0173 1.08-0.0173 1.08-0.035 2.18-0.116 3.97-0.381 7.27-2.38 10.8-3.36 2.61-7.31 2.32-11.4 2.34-1.07 0.00999-1.07 0.00999-2.16 0.0202-1.5 0.0101-3.01 0.0148-4.51 0.0145-2.29 0.00437-4.58 0.0407-6.87 0.0786-1.47 0.00587-2.93 0.00984-4.4 0.0117-0.678 0.0144-1.36 0.0287-2.06 0.0435-3.3-0.0313-5.92-0.616-9.03-1.72-6.06-6.52-3.73-20.5-3.71-29.1-0.00175-1.26-0.0035-2.52-0.00531-3.81-0.00451-3.41-0.00281-6.83 3.79e-4 -10.2 0.00256-3.61 1.75e-4 -7.21-0.00139-10.8-0.00181-6.06 5.58e-4 -12.1 0.00534-18.2 0.00543-6.95 0.00369-13.9-0.00183-20.9-0.00458-6.01-0.00516-12-0.00256-18 0.00154-3.57 0.00182-7.14-0.00154-10.7-0.0201-25.3-0.0201-25.3 0.457-37.1 0.022-0.749 0.0439-1.5 0.0666-2.27 0.221-4.33 0.87-7.25 3.61-10.7 4.01-3.22 7.29-3.39 12.4-3.42zm43.6 55.4c0.33 6.93 0.66 13.9 1 21 2.54-0.0619 5.07-0.124 7.69-0.188 0.79-0.00669 1.58-0.0134 2.39-0.0203 3.96-0.175 5.63-0.575 8.9-3.03 2.73-3.74 2.67-5.97 2.44-10.5-0.298-2.5-0.298-2.5-2.18-4.88-5.99-3.83-13.4-2.5-20.2-2.44z" fill="#FCFDFE"/>
<path transform="translate(1530 67.5)" d="m0 0c0.561 0.402 1.12 0.804 1.7 1.22 1.67 1.33 3.13 2.75 4.61 4.28l2.19 2.06c10.1 10.1 20.8 24.1 21.2 39-0.375 3.94-0.375 3.94-2.38 5.94-5.69 2.02-12.3 1.27-18.2 1.31-1.95 0.0435-1.95 0.0435-3.93 0.0879-13.3 0.088-13.3 0.088-18.8-4.4-2.03-2.06-3.68-4.25-5.31-6.62-3.3-4.7-3.3-4.7-7.69-8.38v-2c-8.37-2.47-16-3.47-24.8-3.38-1.07-0.0116-2.14-0.0232-3.25-0.0352-6.4 0.0236-11.2 0.749-17 3.41-1.09 0.495-2.19 0.99-3.31 1.5-2.38 1.33-3.84 2.56-5.69 4.5h-2l-0.312 1.81c-0.688 2.19-0.688 2.19-2.07 3.52-8.85 9.18-10.1 24.8-9.97 36.8 0.165 6.02 0.908 11.3 3.36 16.9 0.418 1.02 0.418 1.02 0.844 2.05 4.06 8.99 10.2 16.6 19.2 20.9 3.62 1.24 7.26 2.2 11 3v2c19.8 0.181 19.8 0.181 37-8.44 2.11-2.63 2.11-2.63 4.19-5.88 0.598-0.887 1.2-1.77 1.81-2.69h2l0.625-2.19c1.86-3.8 3.97-5.31 7.38-7.81 5.26-1.75 10.9-1.18 16.4-1.19 1.23-0.0122 2.46-0.0245 3.73-0.0371 1.78-0.0029 1.78-0.0029 3.6-0.00586 1.63-0.00616 1.63-0.00616 3.29-0.0125 3.98 0.323 6.87 1.19 9.81 3.93 2.15 4.19 1.45 8.08 0.5 12.6-4.88 13.9-13.5 29.6-26.3 37.8h-3l-1 3c-4.15 2.38-8.6 4.14-13 6-0.883 0.387-1.77 0.773-2.68 1.17-20.4 8.27-46.9 8.9-67.6 0.966-4.14-1.8-8.08-3.89-12-6.13-1.64-0.936-3.32-1.82-5-2.69-8.08-4.35-19.2-11.4-22.8-20.3h-2c-16.2-18.5-17.2-42.8-16-66 0.854-10.7 2.54-21.1 7-31h2c0.159-0.568 0.317-1.14 0.48-1.72 1.71-5.66 3.95-9.58 7.52-14.3l1-3c1.78-1.72 1.78-1.72 3.94-3.5 2.57-2.13 4.19-3.68 6.06-6.5 1.66-1.01 3.33-2.01 5-3l1-2c1.91-0.974 3.83-1.94 5.77-2.86 2.11-1.08 3.97-2.29 5.91-3.64 5.31-3.41 11.3-4.86 17.3-6.5 1.14-0.325 1.14-0.325 2.3-0.656 23.9-6.5 56-3.68 76.4 11.2z" fill="#FCFDFE"/>
<path transform="translate(151 65.6)" d="m0 0c2.02 1.51 2.02 1.51 4.47 2.77 8.42 5.51 14.5 17.3 17.5 26.7 0.61 3.78 0.959 7.27 0 11-2.24 2.91-3.47 3.9-7.11 4.61-7.49 0.29-7.49 0.29-9.68 0.339-2.07 0.051-4.14 0.145-6.21 0.243-1.97 0.0599-1.97 0.0599-3.99 0.121-1.8 0.0561-1.8 0.0561-3.64 0.113-6.43-0.812-9.8-4.78-13.7-9.55-5.32-5.45-10.4-6.46-17.7-6.84-5.06-0.0404-9.92 0.214-14.9 0.969l-3.56 0.312c-2.58 0.437-2.58 0.437-3.69 2.62l-0.75 2.06-2 2c-0.945 2.85-1.19 5.57-1.25 8.56-0.0387 1.15-0.0387 1.15-0.0781 2.32 0.519 3.35 2.48 4.49 5.09 6.44 7.83 5.07 14.9 5.81 24.1 6.41 3.36 0.295 6.46 0.929 9.72 1.75 3.08 0.668 6.18 1.02 9.31 1.4 6.48 0.887 12.1 2.67 18.1 5.12 1.48 0.523 2.96 1.04 4.44 1.56 3.02 1.22 5.23 2.2 7.56 4.44v2l1.94 0.812c2.06 1.19 2.06 1.19 3.06 4.19 0.99 0.33 1.98 0.66 3 1 7.46 8.75 9.69 21.3 9.21 32.6-0.0696 0.806-0.139 1.61-0.211 2.44-0.0696 0.919-0.139 1.84-0.211 2.79-1.03 8.72-4.6 15.6-8.79 23.2h-2l-0.688 2.31c-1.63 3.34-3.06 3.99-6.31 5.69l-3.12 2.12c-2.88 1.88-2.88 1.88-5.88 2.88l-1 2c-1.86 0.904-3.77 1.73-5.69 2.5-1.04 0.423-2.07 0.846-3.14 1.28-24 9.2-49.6 8.5-73.2-1.78-2.92-1.5-5.35-3.04-8-5v-2c-0.731-0.253-1.46-0.505-2.21-0.766-9.44-4.19-15.4-13.1-19-22.4-1.56-5.78-1.65-12.1 0.246-17.8 4.37-1.95 8.26-2.26 13-2.27 1.32-0.00258 2.63-0.00516 3.99-0.00781 0.678 0.00419 1.36 0.00838 2.05 0.0127 2.08 0.0107 4.15 5.56e-5 6.23-0.0127 1.31 0.00258 2.63 0.00516 3.98 0.00781 1.8 0.00338 1.8 0.00338 3.63 0.00684 3.77 0.313 5.98 1.06 8.57 3.81 0.447 0.581 0.895 1.16 1.36 1.76 5.39 6.46 10.8 9.78 19.2 10.7 9.58 0.558 19.7 0.502 28-5 2.68-4.02 3.7-7.2 3-12-2.5-4.91-4.82-7.15-10-9-6.44-1.53-13-2.11-19.6-2.7-15.3-1.35-28-3.13-41.4-11.3-0.772-0.424-1.54-0.848-2.34-1.29-9.11-5.16-16.1-14.5-19.2-24.5-3.31-16.5-1.27-33.9 7.43-48.2 9.41-12.9 25.7-21.3 41.2-23.8 20.9-3.1 43.2-2.42 60.9 10.4z" fill="#FCFDFE"/>
<path transform="translate(987,63)" d="m0 0c1.66 1.01 3.33 2.01 5 3 11 6.56 18.5 18.8 22 31 0.476 3.1 0.806 5.95 0 9-2.25 2.9-3.47 3.9-7.11 4.59-1.2 0.04-2.4 0.0801-3.63 0.121-1.31 0.0458-2.63 0.0915-3.98 0.139-0.682 0.0133-1.36 0.0266-2.07 0.0403-2.07 0.0434-4.14 0.124-6.21 0.21-11.3 0.315-11.3 0.315-17-3.1-1.84-1.9-1.84-1.9-3.38-3.94-5.01-5.93-9.74-8.06-17.4-8.88-7.57-0.402-15.2-0.479-22.2 2.81-3.84 3.49-5.29 5.9-6 11.1-0.14 3.02-0.025 4.86 0.938 7.75 7.74 8.21 17.3 9.35 28.1 10.2v1c0.868 0.0673 0.868 0.0673 1.75 0.136 20.5 1.64 20.5 1.64 30.2 4.86 0.856 0.226 1.71 0.451 2.59 0.684 12 3.19 19 9.8 25.7 20.1 8.16 14.4 7.11 30.6 2.92 46-1.1 3.04-1.76 4.22-4.17 6.23l-1.56 2.69c-0.474 0.763-0.949 1.53-1.44 2.31h-2l-0.75 2.38c-1.43 3.01-2.28 3.38-5.25 4.62l-1 2c-2.07 0.852-2.07 0.852-4.56 1.62-0.826 0.26-1.65 0.521-2.5 0.789-0.638 0.193-1.28 0.387-1.93 0.586v2c-1.68 0.798-3.37 1.59-5.06 2.38-0.94 0.441-1.88 0.882-2.85 1.34-22.2 9.25-48.6 8.39-70.8-0.129-5.68-2.76-10.4-6.6-15.2-10.6-2.21-1.62-4.44-3.22-6.67-4.81-0.438-0.393-0.877-0.786-1.33-1.19v-2h-2c-6.03-8-8.52-15.9-8.32-25.8 0.324-2.21 0.324-2.21 2.14-4.77 5.45-3.58 12-2.77 18.3-2.84 1.44-0.0215 2.87-0.0556 4.31-0.103 13.5-0.435 13.5-0.435 17.9 3.39 0.921 1.01 1.81 2.05 2.66 3.12l4 4 2 1v2c8.3 3.04 16.3 3.25 25 3 0.749-0.0168 1.5-0.0335 2.27-0.0508 5.45-0.376 9.56-2.56 13.7-5.95 2.7-4.05 2.53-7.25 2-12-1.33-3.39-2.39-4.62-5.46-6.54-4.66-1.92-9.12-2.41-14.1-2.96-2.06-0.252-4.12-0.505-6.18-0.758-3.06-0.364-6.11-0.726-9.17-1.08-17.8-2.13-31.8-6.51-46.1-17.7v-2h-2c-7.78-10.2-10.2-19.8-10.2-32.4-0.0122-0.908-0.0245-1.82-0.0371-2.75-0.0312-14.4 5.01-26.3 14.9-36.7 4.42-4.18 4.42-4.18 8.3-4.18 0.236-0.607 0.472-1.21 0.715-1.84 3.19-5.36 11.9-7.76 17.7-9.54 18.9-4.59 48.5-6.61 64.6 6.38z" fill="#FCFDFE"/>
<path transform="translate(389 55.6)" d="m0 0c0.929-0.00526 1.86-0.0105 2.82-0.0159 3.06-0.0132 6.12-0.00448 9.18 0.00568 2.13-0.00202 4.26-0.00493 6.4-0.0087 4.46-0.00442 8.93 0.00199 13.4 0.016 5.72 0.0171 11.4 0.00724 17.2-0.0107 4.4-0.0108 8.8-0.00739 13.2 3.83e-4 2.11 2e-3 4.22-4.51e-4 6.33-0.00744 2.95-0.00762 5.89 4e-3 8.84 0.0207 0.87-0.00607 1.74-0.0121 2.64-0.0184 4.7 0.0493 7.86 0.324 11.6 3.41 3.18 4.78 2.37 10.2 2.37 15.8 0.00437 2.1 0.0407 4.2 0.0786 6.31 0.00587 1.34 0.00984 2.68 0.0117 4.02 0.00822 1.22 0.0164 2.43 0.0249 3.69-0.486 3.16-0.486 3.16-2.2 5.53-4.54 3.25-9.51 2.76-14.9 2.7-0.734-0.00379-1.47-0.00757-2.22-0.0115-3.12-0.0162-6.23-0.0439-9.35-0.0715-18.3-0.942-18.3-0.942-35.8 3.02-0.223 2.08-0.428 4.17-0.625 6.25-0.116 1.16-0.232 2.32-0.352 3.52-0.0236 3.26 0.0985 4.63 1.98 7.23 2.94 2.62 4.77 3.37 8.69 3.35 0.925 0.00366 1.85 0.00731 2.8 0.0111 0.992-0.0093 1.98-0.0186 3.01-0.0282 2.11 0.0125 4.21 0.0255 6.32 0.0391 3.32 0.00393 6.63-3.76e-5 9.95-0.0146 3.2-0.00857 6.41 0.0131 9.61 0.0381 0.99-0.0133 1.98-0.0267 3-0.0404 4.68 0.0502 6.9 0.0862 10.7 2.99 4.72 6.54 4.17 13.6 3.86 21.3-0.0148 1.02-0.0296 2.05-0.0449 3.1-0.057 1.48-0.057 1.48-0.115 3-0.0284 0.893-0.0569 1.79-0.0862 2.71-1.03 3.84-2.46 5.25-5.69 7.57-3.37 0.709-6.66 0.674-10.1 0.637-1.46 0.0156-1.46 0.0156-2.95 0.0314-3.11 0.0297-6.22 0.0263-9.33 0.0193-3.1 0.00892-6.21 0.025-9.31 0.0515-1.93 0.0148-3.86 0.0188-5.79 0.0102-5.24 0.0221-9.57 0.538-14.5 2.25-0.834 4.38-1.16 8.55-1.19 13-0.0142 1.18-0.0284 2.35-0.043 3.56 0.236 3.53 0.787 6.21 2.23 9.44 2.95 0.985 4.94 1.14 8.02 1.17 1.53 0.0202 1.53 0.0202 3.1 0.0409 1.1 0.0104 2.21 0.0209 3.34 0.0316 2.33 0.0329 4.67 0.0662 7 0.0996 3.68 0.0474 7.36 0.0918 11 0.131 3.55 0.0398 7.1 0.0913 10.6 0.144 1.1 0.00841 2.19 0.0168 3.32 0.0255 10.4 0.168 10.4 0.168 14.5 2.35 2.87 3.52 3.38 6.27 3.36 10.7-9.67e-4 1.63-9.67e-4 1.63-0.00195 3.29-0.0161 1.12-0.0322 2.25-0.0488 3.4 0.00322 1.12 0.00645 2.24 0.00977 3.39-0.0711 10.9-0.0711 10.9-2.32 15.2-2.8 1.75-4.96 2.25-8.24 2.27-0.838 0.00998-1.68 0.02-2.54 0.0302-1.37 9.97e-4 -1.37 9.97e-4 -2.76 0.00201-1.45 0.0125-1.45 0.0125-2.93 0.0252-3.2 0.0241-6.39 0.0329-9.59 0.0395-2.22 0.00897-4.44 0.0181-6.67 0.0274-4.66 0.0165-9.32 0.0242-14 0.0271-5.97 0.00539-11.9 0.0431-17.9 0.0887-4.59 0.0298-9.18 0.037-13.8 0.038-2.2 0.00421-4.4 0.0167-6.6 0.0375-3.08 0.0269-6.16 0.0221-9.23 0.00958-0.907 0.0148-1.81 0.0297-2.75 0.045-0.844-0.00976-1.69-0.0195-2.56-0.0296-1.09 0.00302-1.09 0.00302-2.2 0.00609-3.51-0.951-6.03-2.84-8.29-5.62-0.741-3.2-0.741-3.2-0.728-6.89-0.00583-0.681-0.0117-1.36-0.0177-2.06-0.0122-2.27 0.0184-4.55 0.0489-6.82 5.54e-5 -1.63-0.00252-3.27-0.00752-4.9-0.00599-4.43 0.0252-8.86 0.0632-13.3 0.0338-4.63 0.0344-9.27 0.0387-13.9 0.012-7.78 0.0458-15.6 0.095-23.3 0.0694-11 0.0987-22 0.12-32.9 0.0183-8.52 0.0477-17 0.0786-25.5 0.00317-0.915 0.00634-1.83 0.00961-2.77 0.0188-5.25 0.0431-10.5 0.0761-15.8 0.00934-1.59 0.017-3.19 0.0229-4.78 0.00842-2.17 0.023-4.34 0.0393-6.51 0.00687-1.22 0.0137-2.43 0.0208-3.68 0.14-2.82 0.14-2.82 1.14-4.82 5.14-3.33 9.5-3.43 15.4-3.39z" fill="#FCFDFE"/>
<path transform="translate(538 43.7)" d="m0 0c12.3 6.15 21.3 15.3 30.1 25.6 2.32 2.55 4.9 4.58 7.59 6.74 2.48 2.36 4.74 4.66 6.81 7.38 1.81 2.18 3.49 3.81 5.62 5.62 4.65 3.96 8.9 8.28 13.2 12.6 2.9 3.06 2.9 3.06 6.39 5.36-0.0133-0.575-0.0266-1.15-0.0404-1.74-0.134-6.04-0.224-12.1-0.289-18.1-0.03-2.25-0.0708-4.49-0.123-6.74-0.562-24.8-0.562-24.8 6.45-33.4 9.13-8.62 24.6-6.65 36.2-6.41 10.4 0.45 20.9 1.9 28.8 9.23 7.71 9.96 5.91 22.3 5.74 34.3-0.0106 2.51-0.0181 5.02-0.0228 7.53-0.0189 5.95-0.0695 11.9-0.135 17.9-0.0777 7.23-0.103 14.5-0.131 21.7-0.0509 11.5-0.16 23.1-0.306 34.6-0.0905 7.38-0.143 14.8-0.16 22.1-0.0148 4.59-0.0534 9.18-0.0974 13.8-0.0153 2.12-0.0208 4.24-0.0154 6.37 0.0517 25.8 0.0517 25.8-8.66 34.8-1.77 1.34-3.36 2.12-5.44 2.89-0.682 0.278-1.36 0.556-2.07 0.843-8.05 2.7-15.2-0.177-22.6-3.48-7.24-3.89-12.5-9.28-18.2-15.1-0.981-0.987-1.96-1.97-2.94-2.96-2.58-2.59-5.15-5.18-7.71-7.78-4.1-4.14-8.21-8.28-12.3-12.4-1.42-1.43-2.84-2.87-4.26-4.31-4.49-4.52-9.03-8.88-13.9-13-2.37-2.07-4.56-4.27-6.75-6.53-0.169 4.94-0.33 9.89-0.482 14.8-0.053 1.68-0.108 3.36-0.166 5.03-0.471 11-0.471 11 0.258 21.9 0.524 4.19-0.0558 7.09-1.8 11-0.427 1.05-0.853 2.09-1.29 3.17-4.38 5.36-9.86 8.35-16.8 9.43-5.18 0.506-10.3 0.549-15.5 0.488-2.73-0.0246-5.46 0.0203-8.19 0.071-9.15 0.054-16.6-0.553-24.7-5.23-9.24-10.3-8.15-23.6-8.17-36.6-0.0209-2.2-0.044-4.4-0.069-6.6-0.0492-4.71-0.0833-9.41-0.106-14.1-0.0385-7.45-0.126-14.9-0.219-22.3-0.139-11.6-0.224-23.1-0.269-34.7-0.026-6.61-0.0654-13.2-0.138-19.8-0.0723-6.55-0.108-13.1-0.12-19.6-0.0103-2.46-0.0326-4.91-0.0676-7.37-0.31-22.8-0.31-22.8 5.87-30.7 3.04-2.9 6.14-4.98 9.9-6.82l3-1.88c6.29-2.36 12.4-0.00624 18.3 2.53zm105 11.4c-1.87 0.0416-1.87 0.0416-3.79 0.084-8.96 0.152-8.96 0.152-16.1 4.85-2.75 6.76-2.24 13.7-2.16 20.9 0.00628 1.36 0.0115 2.72 0.0158 4.08 0.0132 3.56 0.0376 7.13 0.0654 10.7 0.0433 5.7 0.073 11.4 0.096 17.1 0.0101 1.97 0.0275 3.95 0.045 5.92 0.035 6.53-0.17 12.8-1.06 19.3-5.65-3.16-10.2-6.81-14-12h-2c-0.244-0.593-0.487-1.19-0.738-1.8-1.49-2.6-3.01-3.73-5.45-5.45-4-2.98-7.11-6.15-10.2-10.1-1.53-1.82-1.53-1.82-3.74-2.74-1.86-0.957-1.86-0.957-2.86-3.96-3.44-3.83-3.44-3.83-8-6l-1-3c-1.62-1.68-1.62-1.68-3.62-3.31-0.721-0.615-1.44-1.23-2.18-1.86-1.36-1.13-2.73-2.26-4.1-3.37-3.12-2.56-5.61-4.99-7.9-8.33-0.722-1.03-1.44-2.06-2.19-3.12h-2l-1-3h-2l-1-3c-5.34-5.62-11.6-11.1-19.6-11.6-3.65 0.156-4.33 0.529-7.38 2.94-2.94 3.85-3.13 5.7-3.13 10.5-0.00282 1.25-0.00564 2.51-0.00854 3.8 0.00194 1.4 0.00399 2.8 0.00613 4.19-0.00135 1.47-0.00313 2.93-0.00531 4.4-0.00457 3.99-0.00278 7.99 3.79e-4 12 0.00253 4.19 1.84e-4 8.37-0.00139 12.6-0.00182 7.04 5.83e-4 14.1 0.00534 21.1 0.00542 8.12 0.0037 16.2-0.00183 24.3-0.00456 6.98-0.00517 14-0.00256 20.9 0.00155 4.16 0.00179 8.33-0.00154 12.5-0.00292 3.93-8.34e-4 7.85 0.00489 11.8 0.00131 1.43 9.67e-4 2.86-0.00126 4.29-0.00961 6.81 0.0663 13.6 0.391 20.4 0.0452 1.02 0.0905 2.04 0.137 3.1 0.748 3.34 1.99 4.56 4.6 6.7 3.13 1.57 6.49 1.21 9.93 1.24 0.787 0.00807 1.57 0.0161 2.38 0.0245 1.67 0.0138 3.33 0.0246 5 0.0324 2.55 0.0172 5.09 0.0611 7.64 0.105 1.62 0.0101 3.24 0.0186 4.86 0.0254 1.14 0.0263 1.14 0.0263 2.3 0.0531 3.25-0.0133 5.4-0.131 8.09-2.04 2.39-3.24 2.38-5.99 2.35-9.87 0.0103-0.742 0.0207-1.48 0.0313-2.25 0.0294-2.45 0.0309-4.89 0.0322-7.34 0.015-1.7 0.0317-3.4 0.0501-5.09 0.0437-4.47 0.0637-8.93 0.0787-13.4 0.0196-4.56 0.0615-9.12 0.102-13.7 0.0753-8.94 0.126-17.9 0.16-26.8 4.78-0.151 4.78-0.151 6.77 1.21 0.529 0.555 1.06 1.11 1.6 1.68 0.889 0.914 0.889 0.914 1.8 1.85 0.905 0.968 0.905 0.968 1.83 1.96 0.603 0.626 1.21 1.25 1.83 1.9 2.23 2.32 4.45 4.65 6.65 6.99 1.14 1.18 2.32 2.31 3.52 3.43h2c0.251 0.58 0.501 1.16 0.76 1.76 1.4 2.54 2.97 4.15 5.08 6.13 1.13 1.06 1.13 1.06 2.28 2.15 0.785 0.73 1.57 1.46 2.38 2.21 0.785 0.745 1.57 1.49 2.38 2.26 3.53 3.91 3.53 3.91 8.12 5.49 0.22 0.548 0.441 1.1 0.668 1.66 1.75 3.08 4.12 5.34 6.64 7.78 0.474 0.465 0.947 0.929 1.44 1.41 1.41 1.39 2.83 2.77 4.25 4.15 1.67 1.66 3.34 3.33 5 5l2.72 2.72c8.28 8.28 8.28 8.28 10.9 10.9 4.99 4.88 9.05 7.64 16.2 7.77 3.78-0.0906 4.95-0.28 8.19-2.44 1.24-3.25 1.2-6.62 1.31-10.1 0.0407-1.22 0.0815-2.45 0.123-3.71 0.0391-1.34 0.0778-2.68 0.116-4.01 0.0312-1.03 0.0312-1.03 0.0631-2.08 0.467-15.4 0.589-30.9 0.628-46.3 0.00407-1.41 0.00819-2.82 0.0124-4.23 0.0188-6.6 0.0331-13.2 0.0416-19.8 0.00988-7.55 0.0366-15.1 0.0765-22.6 0.0302-5.91 0.045-11.8 0.0483-17.7 0.00234-3.5 0.0111-7 0.0365-10.5 0.0276-3.88 0.0235-7.75 0.0165-11.6 0.0128-1.14 0.0256-2.28 0.0388-3.46-0.0424-6.46-0.539-10.6-4.51-15.8-7-4.03-14.3-3.28-22.1-2.94z" fill="#000100"/>
<path transform="translate(1166 55)" d="m0 0c2.42 0.0818 4.84 0.125 7.27 0.165 1.54 0.0439 3.09 0.0901 4.63 0.139 0.722 0.0106 1.44 0.0213 2.19 0.0322 3.24 0.142 5.01 0.275 7.41 2.54 1.2 2.49 1.33 4.26 0.8 6.97-1.8 5.1-4.94 9.6-7.77 14.2-1.58 2.74-3.16 5.49-4.74 8.23-0.416 0.583-0.833 1.17-1.26 1.77h-2l-0.25 2.06c-1.1 4.32-3.06 8.27-6.28 11.4-2 2.03-2.95 4.45-4.18 6.99-3.94 7.65-8.67 14.8-13.9 21.6-2.48 3.42-4.39 7.15-6.36 10.9-1.1 2.02-2.21 4.04-3.31 6.06-0.896 1.65-1.79 3.29-2.69 4.94h-2c-2 7.28-2.27 14.1-2.24 21.7 0.00566 2.09-0.00367 4.19-0.0172 6.28-0.0369 5.95-0.0556 11.9-0.0444 17.8 0.00586 3.65-0.0124 7.31-0.0459 11-0.00793 1.39-0.00671 2.77 0.00402 4.16 0.0144 1.94-0.00464 3.87-0.025 5.81-6.29e-4 1.1-0.00126 2.2-0.00191 3.33-0.832 3.95-2.54 5.45-5.63 7.97-6.14 1.67-12.7 1.22-19.1 1.25-1.17 0.0206-2.34 0.0412-3.55 0.0625-1.13 0.00516-2.26 0.0103-3.42 0.0156-1.02 0.00935-2.05 0.0187-3.11 0.0283-3.34-0.416-5.17-1.36-7.86-3.36-4.98-7.47-3.11-19.8-3.07-28.6-0.00858-2.35-0.0191-4.71-0.0312-7.06-0.0167-3.64-0.0234-7.29 0.00195-10.9 0.179-19.8 0.179-19.8-7.9-37.4-0.891-1.51-1.78-3.03-2.66-4.55-0.794-1.26-1.59-2.51-2.4-3.76-0.395-0.625-0.79-1.25-1.2-1.89-2.19-3.44-4.44-6.83-6.72-10.2-2.95-4.41-5.59-8.96-8.2-13.6-3.63-6.34-7.38-12.6-11.4-18.7-0.449-0.689-0.897-1.38-1.36-2.09-1.83-2.8-3.66-5.6-5.52-8.39-1.41-2.12-2.8-4.26-4.19-6.4-0.426-0.631-0.852-1.26-1.29-1.91-2.92-4.54-3.84-8.12-4.08-13.5 1-2 1-2 3.03-3.11 3.87-1.16 7.55-1.14 11.6-1.08 0.814 0.00283 1.63 0.00566 2.47 0.00858 2.59 0.0112 5.18 0.0362 7.76 0.0617 1.76 0.01 3.52 0.0192 5.28 0.0273 4.3 0.022 8.61 0.0565 12.9 0.0977v2c0.736 0.0438 1.47 0.0877 2.23 0.133 3.92 1.23 4.91 3.33 7.08 6.74 0.697 1.07 1.39 2.14 2.11 3.24 1.57 2.88 1.57 2.88 1.57 5.88h2c0.838 1.62 1.67 3.25 2.5 4.88 0.464 0.905 0.928 1.81 1.41 2.74 1.09 2.38 1.09 2.38 1.09 4.38h2c0.375 0.918 0.75 1.84 1.14 2.78 2.83 6.82 5.81 13 9.86 19.2v2c1.98 0.33 3.96 0.66 6 1 3.4-4.75 6.16-9.09 8.04-14.7 1.54-3.76 3.65-7.2 5.7-10.7 2.24-3.82 4.34-7.68 6.37-11.6 7.45-14.4 7.45-14.4 14.5-17.7 6.78-2.12 13.9-1.59 20.9-1.34z" fill="#FCFDFE"/>
<path transform="translate(776,97)" d="m0 0c1.19 0.309 2.38 0.619 3.6 0.938 1.34 0.354 2.68 0.708 4.02 1.06 0.681 0.178 1.36 0.356 2.06 0.539 5.08 1.35 5.08 1.35 7.31 2.46v2c0.58 0.0851 1.16 0.17 1.76 0.258 7.12 2.36 11.6 11.7 15 17.9 3.32 7.78 3.56 15 3.54 23.4 0.0161 1.09 0.0322 2.18 0.0488 3.3 0.00393 6.5-0.663 11.3-3.36 17.2-0.351 0.884-0.701 1.77-1.06 2.68-0.309 0.724-0.619 1.45-0.938 2.2-0.309 0.74-0.619 1.48-0.938 2.24-1.06 1.88-1.06 1.88-4.06 3.88-1.19 2.05-1.19 2.05-2 4h-3v2h-2l-1 3c-1.82 0.879-1.82 0.879-4.12 1.56-1.12 0.342-1.12 0.342-2.26 0.691-0.864 0.246-1.73 0.492-2.62 0.746-1.03 0.351-2.05 0.701-3.11 1.06-5.03 1.21-9.79 1.34-14.9 1.38-0.967 0.0329-1.93 0.0657-2.93 0.0996-0.942 0.00709-1.88 0.0142-2.85 0.0215-0.846 0.0135-1.69 0.0269-2.56 0.0408-3.68-0.852-6.23-2.71-8.59-5.6-0.589-2.93-0.786-5.02-0.713-7.94-0.00409-0.784-0.00818-1.57-0.0124-2.38-6e-3 -2.58 0.0309-5.17 0.069-7.75 0.00612-1.8 0.00987-3.6 0.0114-5.4 0.0092-3.77 0.038-7.53 0.0824-11.3 0.0566-4.83 0.0784-9.65 0.0874-14.5 0.00831-3.71 0.028-7.43 0.0518-11.1 0.0114-1.78 0.0209-3.56 0.0285-5.34 0.0138-2.49 0.041-4.97 0.0726-7.46 0.00224-0.735 0.00447-1.47 0.00677-2.23 0.0613-3.65 0.139-6.57 2.32-9.58 4.91-2.76 9.28-3.43 14.9-3.79 6.62-0.654 6.62-0.654 8.14-0.211zm-10 15v63c13.5 0.721 13.5 0.721 25-4.82 7.46-8.84 9.64-18.2 9.29-29.6-0.776-8.79-3.66-15.8-9.32-22.6-2.23-1.99-2.23-1.99-5-3-0.636-0.275-1.27-0.549-1.93-0.832-6.6-2.57-10.4-2.17-18.1-2.17z" fill="#000100"/>
<path transform="translate(294 101)" d="m0 0c5.67 4.95 8.28 10.9 8.8 18.3 0.0974 6.25-0.174 10.6-3.2 16.1-0.474 0.928-0.949 1.86-1.44 2.81-1.7 2.38-2.93 3.05-5.56 4.19l-1 2c-6.84 2.3-13.5 2.37-20.7 2.38-1.11 0.0245-2.23 0.049-3.38 0.0742-8.13 0.0292-8.13 0.0292-12.1-2.35-3.35-3.93-2.99-7.51-3.03-12.5-0.00807-0.831-0.0161-1.66-0.0245-2.52-0.0138-1.76-0.0246-3.52-0.0324-5.28-0.0172-2.69-0.0611-5.38-0.105-8.07-0.0101-1.71-0.0186-3.42-0.0254-5.13-0.0175-0.804-0.035-1.61-0.0531-2.44 0.0142-3.65 0.129-5.74 2.39-8.68 9.71-7.02 29.7-5.11 39.5 1.09zm-27.4 10.4 1 21 7.69-0.188c0.79-0.00669 1.58-0.0134 2.39-0.0203 3.96-0.175 5.63-0.575 8.9-3.03 2.73-3.74 2.67-5.97 2.44-10.5-0.298-2.5-0.298-2.5-2.18-4.88-5.99-3.83-13.4-2.5-20.2-2.44z" fill="#000100"/>
<path transform="translate(718,55)" d="m0 0c24.8-0.206 24.8-0.206 36 1-3.84 2.56-6.95 2.25-11.4 2.2-0.817-0.00283-1.63-0.00566-2.48-0.00858-2.61-0.0112-5.22-0.0363-7.82-0.0617-1.77-0.01-3.54-0.0192-5.31-0.0273-4.34-0.022-8.67-0.0566-13-0.0977l4-1v-2z" fill="#8F9293"/>
<path transform="translate(767,56)" d="m0 0c2.38-0.0272 4.75-0.0469 7.12-0.0625 0.998-0.0126 0.998-0.0126 2.02-0.0254 4.07-0.0199 7.87 0.299 11.9 1.09v2h-22l1-3z" fill="#D7D9DA"/>
<path transform="translate(280,56)" d="m0 0h13v2l4 1h-18l1-3z" fill="#D3D6D7"/>
<path transform="translate(439,96)" d="m0 0h12l1 3h-14l1-3z" fill="#393A3B"/>
<path transform="translate(813,139)" d="m0 0c0.99 0.33 1.98 0.66 3 1v12h-2c-1-3.01-1.1-5.04-1.06-8.19 0.00902-0.901 0.018-1.8 0.0273-2.73 0.0116-0.687 0.0232-1.37 0.0352-2.08z" fill="#DDE0E1"/>
<path transform="translate(108,127)" d="m0 0c1.44-0.0542 2.87-0.0929 4.31-0.125 0.801-0.0232 1.6-0.0464 2.43-0.0703 2.26 0.195 2.26 0.195 5.26 2.2-3.47 1.16-6.36 1.07-10 1v-2l-2-1z" fill="#979A9B"/>
<path transform="translate(111,92)" d="m0 0 2 1v2h-12c2.08-4.16 5.84-3.15 10-3z" fill="#B3B6B7"/>
<path transform="translate(1151,55)" d="m0 0h6v2h5v1h-14c0.99-0.33 1.98-0.66 3-1v-2z" fill="#B7BABB"/>
</svg>
